<svg xmlns="http://www.w3.org/2000/svg" preserveAspectRatio="xMidYMid" version="1.0" viewBox="0 0 500 500"><circle cx="250.2" cy="250.2" r="242.9"/><g fill="#fff"><path d="M260.8 76.1a82 82 0 0 0-55.2 31.3c-3.2 3.7-3.8 5-3.8 7.6 0 4.3 3.2 7.7 7.3 7.7 2.6 0 3.6-.7 9.7-6.7 15.2-15.2 28.6-21.3 47.1-21.3 25.9 0 49 15.5 57.8 38.8a46 46 0 0 1 2.4 17.5c.4 12.3.4 12.3 9.4 14.8a181 181 0 0 1 30.7 11.3c35.8 17.3 54.3 48.1 49.1 82-6.7 43.8-44.3 77.4-86.4 77.4-15 0-27.6-3.1-42.9-10.5-27.8-13.5-53.8-38.9-79.3-77.5-12.6-19.1-15.4-21.2-27.5-21.2-6.8 0-7.8.2-11.6 2.3a24 24 0 0 0-12.5 21.8c0 7.5 2.4 11.9 18 32.2 17 22.5 37.6 43.5 56.3 57.7a178 178 0 0 0 70.3 32.6c12.7 2.6 34 2.6 46.3 0 35.6-7 65-28 84.2-60 19.6-32.8 22.7-73.5 8-104.5q-21.7-45-81.1-63c-6.8-2.1-6.8-2.1-7.6-6.5a79 79 0 0 0-41.2-54.4 87 87 0 0 0-47.5-9.4"/><path d="M164.8 129.4c-43 4.8-80 30.8-99.5 70.1A114 114 0 0 0 54 269.9a95 95 0 0 0 15.6 39.3c15.5 23.1 39.5 39.3 73.2 49.5 6.8 2 6.8 2 7.6 6.5a80 80 0 0 0 51.7 59c21.3 7.8 43.1 6.8 63-2.9a84 84 0 0 0 29-23.2c3.4-4.1 4-5.4 4-8 0-4.3-3.2-7.7-7.3-7.7-2.6 0-3.6.7-9.3 6.4-14.7 15-29.1 21.6-47.3 21.6a62 62 0 0 1-58-38.8 46 46 0 0 1-2.4-17.5c-.4-12.4-.4-12.4-9.4-15-17.2-4.9-27-8.7-37.4-14.7-31-17.7-46.4-45.2-42.6-76.1a92 92 0 0 1 73-78.6c33.4-5.9 68.8 9.4 102 43.8 12 12.4 21.2 24.2 33.9 43.1 12.3 18.6 15 20.8 26.5 21.4 6 .3 6.7.2 11.4-2 8.6-4.3 13.5-12.1 13.6-21.2 0-6.5-1.2-10-6-17.2a337 337 0 0 0-68.2-73.8 172 172 0 0 0-71.1-32.7c-8-1.5-28-2.4-34.7-1.7"/></g></svg>